<?xml version="1.0" encoding="utf-8"?>
<!-- Generator: Adobe Illustrator 21.1.0, SVG Export Plug-In . SVG Version: 6.00 Build 0)  -->
<svg version="1.1" id="Layer_1" xmlns="http://www.w3.org/2000/svg" xmlns:xlink="http://www.w3.org/1999/xlink" x="0px" y="0px"
	 viewBox="0 0 1190 1374" style="enable-background:new 0 0 1190 1374;" xml:space="preserve">
<style type="text/css">
	.st0{fill:url(#SVGID_1_);}
	.st1{fill:url(#SVGID_2_);}
	.st2{fill:url(#SVGID_3_);}
	.st3{fill:url(#SVGID_4_);}
	.st4{fill:url(#SVGID_5_);}
	.st5{opacity:0.99;}
	.st6{fill:url(#SVGID_6_);}
	.st7{fill:url(#SVGID_7_);}
	.st8{fill:url(#SVGID_8_);}
	.st9{opacity:0.95;}
	.st10{fill:url(#SVGID_9_);}
	.st11{fill:url(#SVGID_10_);}
	.st12{fill:url(#SVGID_11_);}
	.st13{fill:url(#SVGID_12_);}
	.st14{fill:url(#SVGID_13_);}
	.st15{fill:url(#SVGID_14_);}
	.st16{fill:url(#SVGID_15_);}
	.st17{fill:url(#SVGID_16_);}
	.st18{fill:url(#SVGID_17_);}
	.st19{fill:url(#SVGID_18_);}
</style>
<title>logo1</title>
<g>
	
		<linearGradient id="SVGID_1_" gradientUnits="userSpaceOnUse" x1="0" y1="686.94" x2="595.0601" y2="686.94" gradientTransform="matrix(1 0 0 -1 0 1374)">
		<stop  offset="0" style="stop-color:#47BAE2"/>
		<stop  offset="1" style="stop-color:#28B5DB"/>
	</linearGradient>
	<path class="st0" d="M0,1031c0-229.7,0-459.3,0-689c2-0.9,4-1.7,5.9-2.8C198.1,228.3,390.4,117.3,582.6,6.4c4-2.3,7.7-5.3,12.4-6.3
		v304c-2.4,1.2-4.8,2.4-7.1,3.7C482,368.9,376.1,430.1,270.1,491.2c-5.1,3-7.1,6.2-7,12.1c0.2,122.3,0.2,244.7,0,367
		c0,6.3,2,9.8,7.5,13c90.4,52,180.8,104.1,271.1,156.3c17.8,10.2,35.6,20.3,53.4,30.5v304c-1.6-0.6-3.1-1.2-4.5-2
		c-63.2-36.5-126.4-72.9-189.6-109.4c-99.9-57.7-199.7-115.3-299.6-173C67.5,1070.1,33.7,1050.6,0,1031z"/>
	
		<linearGradient id="SVGID_2_" gradientUnits="userSpaceOnUse" x1="309.9216" y1="579.6294" x2="449.8328" y2="821.9714" gradientTransform="matrix(1 0 0 -1 0 1374)">
		<stop  offset="0" style="stop-color:#005A82"/>
		<stop  offset="1" style="stop-color:#05B4C6"/>
	</linearGradient>
	<path class="st1" d="M390.1,646.1v172.2h-38.8l-0.2-133.2L390.1,646.1z M353,623.7v-66.8l39-38.2v66.1L353,623.7z"/>
	
		<linearGradient id="SVGID_3_" gradientUnits="userSpaceOnUse" x1="468.5027" y1="547.1819" x2="607.0298" y2="787.1251" gradientTransform="matrix(1 0 0 -1 0 1374)">
		<stop  offset="0" style="stop-color:#005A82"/>
		<stop  offset="1" style="stop-color:#05B4C6"/>
	</linearGradient>
	<path class="st2" d="M621.9,595.5v40.5l-39,38.2v-39.9h-90.3v145.3h90.4v-1.3l39-39v79H453.6V595.5H621.9z"/>
	
		<linearGradient id="SVGID_4_" gradientUnits="userSpaceOnUse" x1="687.2203" y1="549.3721" x2="825.385" y2="788.6801" gradientTransform="matrix(1 0 0 -1 0 1374)">
		<stop  offset="0" style="stop-color:#005A82"/>
		<stop  offset="1" style="stop-color:#05B4C6"/>
	</linearGradient>
	<path class="st3" d="M715,710.3v69.2h141.4l-38.8,38.8H676.3V595.6h167v87.6L715,710.3z M715,634.4v36l89.4-18.7v-17.3H715z"/>
	
		<linearGradient id="SVGID_5_" gradientUnits="userSpaceOnUse" x1="0" y1="1126.6846" x2="595" y2="1126.6846" gradientTransform="matrix(1 0 0 -1 0 1374)">
		<stop  offset="0" style="stop-color:#5FD6F2"/>
		<stop  offset="1" style="stop-color:#0DA9D3"/>
	</linearGradient>
	<path class="st4" d="M0,344c0-0.3,0-0.7,0-1c49.9-28.9,99.8-57.7,149.7-86.6C290.3,175.3,430.8,94.1,571.3,13
		c7.8-4.5,15.3-9.6,23.7-13v1c-1.6,1.2-2.9,2.8-3.7,4.6c-15,26.9-30,53.9-45,80.8c-31.8,57-63.6,114.1-95.4,171.1
		c-34,61-67.9,122-101.9,183c-2.9,5.2-7.2,9.5-12.5,12.4c-23.5,13.3-46.8,26.8-70.2,40.4c-3.4,2-6,1.8-9.2-0.1
		c-22-12.8-44-25.6-66.1-38.4c-36.9-21.3-73.8-42.7-110.7-64.1C53.6,375.2,26.8,359.6,0,344z"/>
	<g class="st5">
		
			<linearGradient id="SVGID_6_" gradientUnits="userSpaceOnUse" x1="0" y1="611.035" x2="263.319" y2="611.035" gradientTransform="matrix(1 0 0 -1 0 1374)">
			<stop  offset="0" style="stop-color:#048AA0"/>
			<stop  offset="1" style="stop-color:#0DB3CE"/>
		</linearGradient>
		<path class="st6" d="M0,1027c4.2-6.4,7.2-13.5,10.6-20.4C22,983.5,33.1,960.2,44.5,937c13.8-28.1,27.8-56.2,41.6-84.3
			c16.7-33.9,33.3-67.9,49.9-101.8l50.1-102.3c16.9-34.5,34.1-69,50.7-103.7c7.3-15.2,14.9-30.2,22.3-45.3c0.8-1.7,1.2-3.8,3.4-4.7
			c1.1,1.9,0.6,4,0.6,5.9c0,124.1,0,248.3,0.1,372.4c0,5-1.8,7.8-6,10.3c-33.3,19-66.4,38.2-99.6,57.5
			c-43.5,25.2-87,50.4-130.6,75.6c-7.2,4.2-14.4,8.3-21.6,12.5c-1.6,1.2-3.6,1.9-5.6,2V1027z"/>
	</g>
	
		<linearGradient id="SVGID_7_" gradientUnits="userSpaceOnUse" x1="429.8956" y1="0" x2="429.8956" y2="493.2369" gradientTransform="matrix(1 0 0 -1 0 1374)">
		<stop  offset="0" style="stop-color:#048AA0"/>
		<stop  offset="1" style="stop-color:#0DB3CE"/>
	</linearGradient>
	<path class="st7" d="M595,1374c-2.9-1.4-4.2-4.2-5.8-6.7c-35.9-53.7-71.9-107.5-107.8-161.2c-39.4-58.8-78.8-117.7-118.2-176.5
		c-21.2-31.7-42.4-63.4-63.5-95.2c-10.7-16.1-21.6-32-32.4-48.1c-1-1.6-2.8-3-2.4-5.3c1.8-0.9,2.9,0.5,4.1,1.2
		c90.9,52.4,181.8,104.9,272.7,157.3c17.7,10.2,35.6,20.3,53.4,30.4V1374z"/>
	
		<linearGradient id="SVGID_8_" gradientUnits="userSpaceOnUse" x1="263.5331" y1="1127.3799" x2="595" y2="1127.3799" gradientTransform="matrix(1 0 0 -1 0 1374)">
		<stop  offset="0" style="stop-color:#048AA0"/>
		<stop  offset="1" style="stop-color:#0DB3CE"/>
	</linearGradient>
	<path class="st8" d="M595,304c-19.7,11.3-39.4,22.5-59,33.8c-70.9,40.9-141.7,81.7-212.6,122.6c-17.8,10.2-35.5,20.5-53.3,30.7
		c-1,0.6-2,1.1-3.1,1.6c-1.1,0.5-2.3,1-3.2-0.2c-0.7-0.9-0.1-1.9,0.4-2.8c0.8-1.3,1.6-2.5,2.4-3.8c27.1-40.4,54.1-80.9,81.2-121.3
		c36.5-54.4,72.9-108.8,109.4-163.2c27.1-40.4,54.2-80.8,81.2-121.3c16.4-24.5,32.9-49,49.3-73.5c1.9-2.8,3.5-5.8,7.1-6.7V304z"/>
	<g class="st9">
		
			<linearGradient id="SVGID_9_" gradientUnits="userSpaceOnUse" x1="20.96" y1="863.97" x2="570.8" y2="863.97" gradientTransform="matrix(1 0 0 -1 0 1374)">
			<stop  offset="0" style="stop-color:#00E7FF"/>
			<stop  offset="1" style="stop-color:#22BBFF"/>
		</linearGradient>
		<path class="st10" d="M570.8,35.7c-5.8,8.6-11.7,17.2-17.5,25.9c-21,31.3-41.9,62.5-62.9,93.8L359.3,351
			c-21.3,31.8-42.7,63.7-64,95.5c-7.1,10.6-15.1,20.8-21.4,32c-11.4,20.3-21.9,41.1-32.8,61.7c-0.8,1.5-1.3,3.1-2,4.6
			C223.1,577.2,207,609.6,191,642c-18.5,37.5-36.9,75-55.3,112.6c-17.3,35.3-34.7,70.6-52,105.9C66.3,895.9,49,931.4,31.6,966.9
			c-1.9,3.9-3.3,8-5.1,11.9c-1.1,2.3-2.5,4.3-3.8,6.5l-1.7-0.9c1.7-4.2,3.4-8.4,5.2-12.5c19.3-45,38.7-89.9,58.1-134.9
			c17.8-41.3,35.5-82.6,53.3-123.9c18.6-43.3,37.2-86.7,55.7-130c14.3-33.4,28-67,43.2-100c5.3-11.4,14.1-21.3,21.8-31.6
			c41.6-55.8,83.3-111.6,125-167.4c29.9-40,59.8-80.1,89.6-120.2C503.8,122.2,534.9,80.6,566,39c1.1-1.4,2.3-2.8,3.4-4.2L570.8,35.7
			z"/>
	</g>
	<g class="st9">
		
			<linearGradient id="SVGID_10_" gradientUnits="userSpaceOnUse" x1="24.41" y1="247.5988" x2="596.0699" y2="247.5988" gradientTransform="matrix(1 0 0 -1 0 1374)">
			<stop  offset="0" style="stop-color:#00E7FF"/>
			<stop  offset="1" style="stop-color:#22BBFF"/>
		</linearGradient>
		<path class="st11" d="M596,1373.7c-6.1-2.8-8.3-9-11.8-13.9c-38.3-53-76.6-106.2-114.7-159.4c-39.3-54.7-78.5-109.3-117.7-164
			c-29.7-41.4-59.5-82.7-89.4-124.1c-5.5-7.6-5.7-7.5-14.2-3.3c-42,20.7-84,41.3-126,62c-29.3,14.4-58.7,28.7-88,43
			c-3.1,1.5-5.8,4.4-9.9,4.4c0.2-2.6,2.1-2.8,3.4-3.6c22.5-13,45-26,67.5-39c38.3-22.2,76.6-44.5,114.9-66.8
			c15.8-9.2,31.7-18.4,47.5-27.7c5.7-3.3,6.4-3.2,10,2.2c14.5,21.6,28.8,43.3,43.3,64.9c32.4,48.3,64.8,96.6,97.2,144.8
			c31.3,46.6,62.6,93.2,93.9,139.8c29.3,43.7,58.7,87.4,88.1,131.1c1.8,2.6,3.5,5.3,5.9,7.4L596,1373.7z"/>
	</g>
	
		<linearGradient id="SVGID_11_" gradientUnits="userSpaceOnUse" x1="594.5605" y1="687.011" x2="1190" y2="687.011" gradientTransform="matrix(1 0 0 -1 0 1374)">
		<stop  offset="0" style="stop-color:#5FD6F2"/>
		<stop  offset="1" style="stop-color:#0DA9D3"/>
	</linearGradient>
	<path class="st12" d="M595,1374v-304c6.8-2.7,12.9-6.9,19.2-10.6c102.3-59.1,204.7-118.2,307-177.2c4.1-2.4,5.7-5.1,5.7-9.9
		c-0.1-123.5-0.1-247,0-370.5c0-4.8-1.5-7.5-5.7-9.9c-88.8-51.1-177.6-102.4-266.4-153.7C635,326.7,615,315.4,595,304
		c0-100,0-200,0.1-300c0-1.3-2.1-4.3,1.9-4c2.3,1.4,4.5,2.9,6.8,4.2C788.7,111,973.7,217.8,1158.6,324.5c10.4,6,20.4,12.6,31.4,17.5
		v690c-1.8,0.8-3.7,1.5-5.4,2.5c-81.4,46.9-162.8,93.9-244.2,140.8c-101.6,58.6-203.2,117.2-304.9,175.8
		C622,1358.9,608.9,1367.1,595,1374z"/>
	
		<linearGradient id="SVGID_12_" gradientUnits="userSpaceOnUse" x1="893.9011" y1="879.4626" x2="893.9011" y2="1372.15" gradientTransform="matrix(1 0 0 -1 0 1374)">
		<stop  offset="0" style="stop-color:#5FD6F2"/>
		<stop  offset="1" style="stop-color:#0DA9D3"/>
	</linearGradient>
	<path class="st13" d="M1190,345c-23.1,13.3-46.2,26.6-69.3,39.9c-37.9,21.9-75.9,43.8-113.8,65.7c-24,13.9-48,27.6-71.7,41.7
		c-4.9,2.9-8.5,3.1-13.5,0.1c-22-13.2-44.1-26.3-66.6-38.5c-8.3-4.5-12.5-11.5-16.7-19c-11.4-20.3-22.9-40.5-34.2-60.8
		c-15.4-27.6-30.6-55.2-46-82.8c-16.5-29.5-33.1-59-49.6-88.5c-13.7-24.6-27.4-49.1-41.1-73.7c-13.9-25-27.9-50-41.8-75
		c-8.6-15.4-17.2-30.9-25.8-46.3c-0.9-1.7-2.3-3.3-2.1-5.8c2.5,0,4.3,1.7,6.2,2.8C656.7,35,709.4,65.3,762,95.7
		c60,34.6,120,69.3,180.1,103.9c60.9,35.1,121.8,70.3,182.6,105.5c21.8,12.6,43.6,25.2,65.3,37.9V345z"/>
	<g class="st5">
		
			<linearGradient id="SVGID_13_" gradientUnits="userSpaceOnUse" x1="926.6826" y1="611.1749" x2="1190" y2="611.1749" gradientTransform="matrix(1 0 0 -1 0 1374)">
			<stop  offset="0" style="stop-color:#048AA0"/>
			<stop  offset="1" style="stop-color:#0DB3CE"/>
		</linearGradient>
		<path class="st14" d="M1190,1031c-11.1-4.7-21.2-11.2-31.6-17.1c-43.6-25.1-87.1-50.2-130.6-75.5c-32.4-18.7-64.9-37.5-97.4-56.2
			c-2.4-1.1-3.9-3.7-3.7-6.3c0.1-125.7,0.1-251.3,0.1-377c0-1.3,0.2-2.6,0.3-4.2c2.3,0.9,2.7,2.8,3.5,4.3
			c14.7,29.6,29.3,59.1,43.9,88.7c16.5,33.6,33,67.3,49.5,101l51.5,105c16.6,33.8,33.1,67.6,49.7,101.4
			c16.8,34.3,33.6,68.5,50.3,102.8c4.9,10,8.7,20.6,14.6,30.1L1190,1031z"/>
	</g>
	
		<linearGradient id="SVGID_14_" gradientUnits="userSpaceOnUse" x1="595" y1="246.7541" x2="925.8729" y2="246.7541" gradientTransform="matrix(1 0 0 -1 0 1374)">
		<stop  offset="0" style="stop-color:#048AA0"/>
		<stop  offset="1" style="stop-color:#0DB3CE"/>
	</linearGradient>
	<path class="st15" d="M595,1070c15.3-7.8,29.9-16.9,44.7-25.4c62.3-35.9,124.6-71.9,186.9-107.9c31.6-18.2,63.2-36.4,94.8-54.7
		c1.3-0.7,2.4-1.8,4.2-1.4c0.9,1.8-0.5,2.8-1.3,3.9c-29.7,44.5-59.4,88.9-89.2,133.3c-19.6,29.3-39.3,58.7-59,88l-123.2,183.9
		c-17.4,26-34.9,52-52.3,78c-1.6,2.3-2.9,4.9-5.5,6.3V1070z"/>
	
		<linearGradient id="SVGID_15_" gradientUnits="userSpaceOnUse" x1="594.572" y1="1127.1803" x2="926.8107" y2="1127.1803" gradientTransform="matrix(1 0 0 -1 0 1374)">
		<stop  offset="0" style="stop-color:#048AA0"/>
		<stop  offset="1" style="stop-color:#0DB3CE"/>
	</linearGradient>
	<path class="st16" d="M597,0c15.5,21.1,29.3,43.3,43.9,65c28.7,42.7,57.3,85.6,85.9,128.3c27.2,40.5,54.4,81.1,81.7,121.6
		c26.9,40,53.7,79.9,80.6,119.9c11.3,16.9,22.7,33.7,34.1,50.6c0.5,0.7,1,1.4,1.4,2.1c0.9,1.7,3.2,3.5,1.7,5.3c-1.8,2.2-4,0-5.8-1
		c-23.7-13.6-47.4-27.2-71-40.9L625.4,321.2c-10.1-5.8-20-12.1-30.4-17.2c0-100,0-200,0.1-300C595.1,2.8,593.1-0.3,597,0z"/>
	<g class="st9">
		
			<linearGradient id="SVGID_16_" gradientUnits="userSpaceOnUse" x1="598.47" y1="863.9009" x2="1183.4459" y2="863.9009" gradientTransform="matrix(1 0 0 -1 0 1374)">
			<stop  offset="0" style="stop-color:#00E7FF"/>
			<stop  offset="1" style="stop-color:#22BBFF"/>
		</linearGradient>
		<path class="st17" d="M1183.1,1016.1c-2.5-0.4-2.8-2.5-3.5-4c-23.1-46.7-46.1-93.5-69.2-140.3c-11.7-23.8-23.1-47.7-34.8-71.4
			c-14.8-30.2-29.9-60.3-44.7-90.5c-17.7-35.9-35.3-71.8-52.9-107.7c-17.8-36.4-35-73-53.6-109c-7.4-14.3-17.5-27.2-26.5-40.6
			c-21.2-31.7-42.4-63.4-63.7-95.1l-66.2-98.8L704.7,164c-22.2-33.1-44.3-66.2-66.5-99.3C625.8,46.4,613.5,28,601.1,9.6
			c-1.1-1.6-2.5-3.1-2.6-5.2c2.1-1,2.5,0.7,3.2,1.6c22.8,30.4,45.5,60.8,68.2,91.3c14.9,19.9,29.7,39.8,44.6,59.6
			c46.3,62.1,92.7,124.1,139,186.2c31,41.5,61.8,83.2,93,124.5c7.9,10.5,12.3,22.5,17.3,34.2c20.9,48.3,41.6,96.7,62.2,145.1
			c22.8,53.3,45.7,106.5,68.5,159.8c24.5,57.1,49,114.2,73.5,171.3c4.8,11.2,9.6,22.3,14.4,33.5
			C1182.9,1012.9,1184,1014.3,1183.1,1016.1z"/>
	</g>
	<g class="st9">
		
			<linearGradient id="SVGID_17_" gradientUnits="userSpaceOnUse" x1="595.967" y1="247.9941" x2="1163.09" y2="247.9941" gradientTransform="matrix(1 0 0 -1 0 1374)">
			<stop  offset="0" style="stop-color:#00E7FF"/>
			<stop  offset="1" style="stop-color:#22BBFF"/>
		</linearGradient>
		<path class="st18" d="M596,1372.4c-0.3-2.6,1.3-3.8,2.2-5.2c27.6-41.3,55.2-82.5,82.8-123.8c31.5-46.9,62.9-93.8,94.4-140.7
			L873,957.5l48.5-72.2c4.7-7.1,5-7,12.1-2.9c53,30.8,105.9,61.6,158.9,92.4c22.5,13.1,44.9,26.1,67.3,39.2c1.2,0.7,2.6,1.4,3.3,3
			c-2.3,0.6-3.7-0.8-5.3-1.6c-27.3-13.5-54.7-26.9-82-40.5c-35.3-17.3-70.6-34.6-105.9-51.9c-10.2-5-20.5-9.7-30.5-14.9
			c-4.6-2.4-7.3-1.9-10.4,2.4c-18.5,26.1-37.3,52-55.9,77.9c-26.4,36.8-52.9,73.5-79.3,110.3c-25.6,35.6-51.1,71.1-76.7,106.7
			c-26.4,36.8-52.9,73.6-79.3,110.3c-12.1,16.8-24.1,33.5-36.1,50.3C600,1368.3,598.8,1370.8,596,1372.4z"/>
	</g>
	<g>
		
			<linearGradient id="SVGID_18_" gradientUnits="userSpaceOnUse" x1="927.33" y1="689.52" x2="1189.83" y2="689.52" gradientTransform="matrix(1 0 0 -1 0 1374)">
			<stop  offset="0" style="stop-color:#023551"/>
			<stop  offset="1" style="stop-color:#034470"/>
		</linearGradient>
		<path class="st19" d="M1189.8,344.3v680.3c-8.1-4.5-15.9-8.8-23.7-13.2c-23.4-13.1-46.7-26.3-70.1-39.4
			c-28.3-15.9-56.6-31.9-84.8-47.8c-25.1-14.1-50.1-28.4-75.4-42.1c-6.1-3.3-8.5-6.9-8.4-14.2c0.3-122.7,0.3-245.3,0.1-368
			c0-5,1.5-7.5,5.9-10c58.5-33.1,117-66.4,175.3-99.9c26.2-14.9,52.4-29.8,78.6-44.7C1188.1,344.9,1188.9,344.6,1189.8,344.3z"/>
	</g>
</g>
</svg>
