<?xml version="1.0" encoding="utf-8"?>
<!-- Generator: Adobe Illustrator 25.4.1, SVG Export Plug-In . SVG Version: 6.00 Build 0)  -->
<svg version="1.1" id="Layer_1" xmlns="http://www.w3.org/2000/svg" xmlns:xlink="http://www.w3.org/1999/xlink" x="0px" y="0px"
	 viewBox="0 0 290.3 560" style="enable-background:new 0 0 290.3 560;" xml:space="preserve">
<style type="text/css">
	.st0{fill:#F47B20;}
	.st1{opacity:0.5;fill:#FFFFFF;}
	.st2{fill:#FFFFFF;}
	.st3{fill:#3A6BB4;}
	.st4{fill:#00AC54;}
	.st5{fill:none;stroke:#FFFFFF;stroke-width:3;stroke-miterlimit:10;}
	.st6{fill:#EE3E2C;}
	.st7{fill:#5380C0;}
	.st8{fill:#809BBE;}
	.st9{fill:#E6EAF1;}
	.st10{fill:#9954A1;}
	.st11{fill:#596C89;}
	.st12{fill:#00AB54;}
	.st13{fill:#A1BEDF;}
	.st14{fill:#595959;}
	.st15{fill:#00ADD4;}
</style>
<g>
	<path class="st0" d="M200.4,192.6h-41.8c-8,0-14.5-6.5-14.5-14.5v-66.3c0-8,6.5-14.5,14.5-14.5h36.3l20,20.1v60.7
		C214.9,186.1,208.4,192.6,200.4,192.6z"/>
	<path class="st1" d="M214.9,117.4H199c-2.3,0-4.1-1.8-4.1-4.1l0-16"/>
	<g>
		<path class="st2" d="M170.7,154.7l-2.4,7.2h-3.1l7.8-23h3.6l7.8,23h-3.2l-2.5-7.2H170.7z M178.2,152.4l-2.2-6.6
			c-0.5-1.5-0.9-2.9-1.2-4.2h-0.1c-0.3,1.4-0.7,2.8-1.2,4.2l-2.2,6.6H178.2z"/>
		<path class="st2" d="M190.8,139v23h-3v-23H190.8z"/>
	</g>
</g>
<g>
	<path class="st3" d="M129.2,287.9H87.4c-8,0-14.5-6.5-14.5-14.5v-66.3c0-8,6.5-14.5,14.5-14.5h36.3l20,20.1v60.7
		C143.7,281.4,137.2,287.9,129.2,287.9z"/>
	<path class="st1" d="M143.7,212.7h-15.9c-2.3,0-4.1-1.8-4.1-4.1l0-16"/>
	<g>
		<path class="st2" d="M93.5,232.1c1.5-0.2,3.4-0.5,5.9-0.5c3,0,5.2,0.7,6.7,2c1.3,1.1,2.1,2.9,2.1,5c0,2.1-0.6,3.8-1.8,5.1
			c-1.6,1.7-4.3,2.6-7.3,2.6c-0.9,0-1.8,0-2.5-0.2v9.5h-3.1V232.1z M96.6,243.5c0.7,0.2,1.5,0.2,2.5,0.2c3.7,0,6-1.8,6-5.1
			c0-3.1-2.2-4.6-5.6-4.6c-1.3,0-2.4,0.1-2.9,0.2V243.5z"/>
		<path class="st2" d="M110.9,252.4c0.9,0.6,2.5,1.2,4.1,1.2c2.3,0,3.3-1.1,3.3-2.5c0-1.5-0.9-2.3-3.2-3.1c-3.1-1.1-4.5-2.8-4.5-4.8
			c0-2.7,2.2-5,5.9-5c1.7,0,3.2,0.5,4.2,1.1l-0.8,2.3c-0.7-0.4-1.9-1-3.5-1c-1.8,0-2.9,1.1-2.9,2.3c0,1.4,1,2,3.2,2.9
			c3,1.1,4.5,2.6,4.5,5.1c0,3-2.3,5.1-6.4,5.1c-1.9,0-3.6-0.5-4.8-1.2L110.9,252.4z"/>
	</g>
</g>
<g>
	<path class="st4" d="M201.1,96.3h-41.8c-8,0-14.5-6.5-14.5-14.5V15.5c0-8,6.5-14.5,14.5-14.5h36.3l20,20.1v60.7
		C215.6,89.8,209.1,96.3,201.1,96.3z"/>
	<path class="st1" d="M215.6,21.1h-15.9c-2.3,0-4.1-1.8-4.1-4.1l0-16"/>
	<g>
		<rect x="159.5" y="38.6" class="st5" width="41.2" height="32"/>
		<line class="st5" x1="168.9" y1="38.6" x2="168.9" y2="70.5"/>
		<line class="st5" x1="159.5" y1="61.4" x2="200.8" y2="61.4"/>
		<line class="st5" x1="159.5" y1="49" x2="200.8" y2="49"/>
	</g>
</g>
<g>
	<path class="st6" d="M57.3,96.3H15.5C7.5,96.3,1,89.8,1,81.8V15.5C1,7.5,7.5,1,15.5,1h36.3l20,20.1v60.7
		C71.9,89.8,65.4,96.3,57.3,96.3z"/>
	<path class="st1" d="M71.9,21.1H56c-2.3,0-4.1-1.8-4.1-4.1l0-16"/>
	<path class="st2" d="M37,30.7c-0.6-2.1-2-3.1-3.2-2.9c-1.4,0.2-3,1-3.6,2.4c-1.7,3.8,1.9,15.1,2.4,17
		c-3.5,10.5-15.3,31.1-21.1,32.5c-0.1-1.4,0.6-5.3,8.3-10.2c0.4-0.4,0.9-0.9,1.1-1.3c-6.5,3.2-14.9,8.2-9.8,12
		c0.3,0.2,0.7,0.4,1.2,0.6c3.9,1.4,9.3-3.3,14.7-13.9c6-2,10.8-3.5,17.7-4.5c7.5,5.1,12.5,6.1,15.9,4.8c0.9-0.4,2.4-1.6,2.9-3.1
		c-2.8,3.4-9.2,1-14.4-2.2c4.8-0.5,9.7-0.8,11.8-0.2c2.7,0.9,2.6,2.2,2.6,2.4c0.2-0.7,0.5-1.9-0.1-2.9c-2.3-3.7-12.7-1.6-16.5-1.2
		c-6-3.6-10.1-10.1-11.8-14.7C36.5,39.4,38.2,35.1,37,30.7 M34.4,43.3c-1-3.6-2.4-11.5-0.2-14C38.6,31.8,35.9,37.8,34.4,43.3
		 M42.6,60.9c-5.8,1.1-9.7,2.6-15.3,4.8c1.7-3.3,4.8-11.6,6.4-17C35.8,52.9,38.4,57.1,42.6,60.9"/>
</g>
<g>
	<path class="st6" d="M272.9,96.3h-41.8c-8,0-14.5-6.5-14.5-14.5V15.5c0-8,6.5-14.5,14.5-14.5h36.3l20,20.1v60.7
		C287.4,89.8,280.9,96.3,272.9,96.3z"/>
	<path class="st1" d="M287.4,21.1h-15.9c-2.3,0-4.1-1.8-4.1-4.1l0-16"/>
	<path class="st2" d="M251.5,52.1h18.6c0,10.2-8.4,18.6-18.6,18.6c-10.2,0-18.6-8.4-18.6-18.6s8.4-18.6,18.6-18.6V52.1z"/>
	<path class="st2" d="M254.5,49.2V30.6c4.9,0,9.7,2,13.1,5.4c3.5,3.5,5.4,8.2,5.4,13.1H254.5z"/>
</g>
<g>
	<path class="st7" d="M129.2,96.3H87.4c-8,0-14.5-6.5-14.5-14.5V15.5c0-8,6.5-14.5,14.5-14.5h36.3l20,20.1v60.7
		C143.7,89.8,137.2,96.3,129.2,96.3z"/>
	<path class="st1" d="M143.7,21.1h-15.9c-2.3,0-4.1-1.8-4.1-4.1l0-16"/>
	<g>
		<line class="st5" x1="85.1" y1="38.2" x2="131.4" y2="38.2"/>
		<line class="st5" x1="85.1" y1="48.9" x2="131.4" y2="48.9"/>
		<line class="st5" x1="85.1" y1="59.7" x2="131.4" y2="59.7"/>
		<line class="st5" x1="85.1" y1="70.5" x2="108.3" y2="70.5"/>
	</g>
</g>
<g>
	<path class="st8" d="M57.3,192.6H15.5c-8,0-14.5-6.5-14.5-14.5v-66.3c0-8,6.5-14.5,14.5-14.5h36.3l20,20.1v60.7
		C71.9,186.1,65.4,192.6,57.3,192.6z"/>
	<path class="st1" d="M71.9,117.4H56c-2.3,0-4.1-1.8-4.1-4.1l0-16"/>
	<path class="st9" d="M45.6,148.3l-17.4-12.2c-0.4-0.3-1,0-1,0.5V161c0,0.5,0.6,0.8,1,0.5l17.4-12.2C46,149.1,46,148.5,45.6,148.3z"
		/>
</g>
<g>
	<path class="st10" d="M57.3,288.9H15.5c-8,0-14.5-6.5-14.5-14.5v-66.3c0-8,6.5-14.5,14.5-14.5h36.3l20,20.1v60.7
		C71.9,282.4,65.4,288.9,57.3,288.9z"/>
	<path class="st1" d="M71.9,213.7H56c-2.3,0-4.1-1.8-4.1-4.1l0-16"/>
	<path class="st2" d="M51.5,228.5c-0.2-0.2-0.6-0.3-0.9-0.3L30.1,231c-0.6,0.1-1,0.6-1,1.1v4v1.6v16.4c-1.3-1.2-3.1-1.9-5.1-1.9
		c-4.1,0-7.4,3-7.4,6.7c0,3.7,3.3,6.7,7.4,6.7s7.4-3,7.4-6.7v-20.3l18.2-2.4v11.8c-1.3-1.1-3-1.8-4.9-1.8c-4,0-7.2,2.9-7.2,6.5
		c0,3.6,3.2,6.5,7.2,6.5c4,0,7.2-2.9,7.2-6.5v-17.9v-1.6v-4C51.9,229.1,51.7,228.8,51.5,228.5z"/>
</g>
<g>
	<path class="st11" d="M201.1,288.9h-41.8c-8,0-14.5-6.5-14.5-14.5v-66.3c0-8,6.5-14.5,14.5-14.5h36.3l20,20.1v60.7
		C215.6,282.4,209.1,288.9,201.1,288.9z"/>
	<path class="st1" d="M215.6,213.7h-15.9c-2.3,0-4.1-1.8-4.1-4.1l0-16"/>
	<g>
		<path class="st2" d="M169.7,252.7l-12.9-5.7v-2.2l12.9-6.5v3.8l-7.9,3.6l7.9,3.2V252.7z"/>
	</g>
	<g>
		<path class="st2" d="M192.7,252.7l12.9-5.7v-2.2l-12.9-6.5v3.8l7.9,3.6l-7.9,3.2V252.7z"/>
	</g>
	<g>
		<path class="st2" d="M188.3,233.2l-9.7,26.7h-4.4l9.7-26.7H188.3z"/>
	</g>
</g>
<g>
	<path class="st12" d="M128.7,191.6H87.2c-7.9,0-14.4-6.4-14.4-14.4v-65.7c0-7.9,6.4-14.4,14.4-14.4h36l19.8,19.9v60.1
		C143,185.1,136.6,191.6,128.7,191.6z"/>
	<path class="st1" d="M143,117.1h-15.7c-2.2,0-4-1.8-4-4l0-15.9"/>
	<g>
		<polygon class="st2" points="86.6,168.6 97,153.3 106,162.8 117.2,142.6 130.6,168.6 		"/>
		<circle class="st2" cx="92.6" cy="141.9" r="3.2"/>
	</g>
</g>
<g>
	<g>
		<path class="st11" d="M272.2,192.6h-41.8c-8,0-14.5-6.5-14.5-14.5v-66.3c0-8,6.5-14.5,14.5-14.5h36.3l20,20.1v60.7
			C286.7,186.1,280.2,192.6,272.2,192.6z"/>
		<path class="st1" d="M286.7,117.4h-15.9c-2.3,0-4.1-1.8-4.1-4.1l0-16"/>
	</g>
	<rect x="245.6" y="97.3" class="st2" width="4.6" height="4.6"/>
	<rect x="250.2" y="102" class="st2" width="4.6" height="4.6"/>
	<rect x="245.6" y="106.6" class="st2" width="4.6" height="4.6"/>
	<rect x="250.2" y="111.2" class="st2" width="4.6" height="4.6"/>
	<rect x="245.6" y="115.9" class="st2" width="4.6" height="4.6"/>
	<rect x="250.2" y="120.5" class="st2" width="4.6" height="4.6"/>
	<rect x="245.6" y="125.2" class="st2" width="4.6" height="4.6"/>
	<rect x="250.2" y="129.8" class="st2" width="4.6" height="4.6"/>
	<rect x="245.6" y="134.5" class="st2" width="4.6" height="4.6"/>
	<rect x="250.2" y="139.1" class="st2" width="4.6" height="4.6"/>
	<rect x="245.6" y="143.8" class="st2" width="9.3" height="13"/>
	<rect x="247.9" y="150.3" class="st13" width="4.6" height="4.6"/>
</g>
<g>
	<path class="st14" d="M272.9,288.9h-41.8c-8,0-14.5-6.5-14.5-14.5v-66.3c0-8,6.5-14.5,14.5-14.5h36.3l20,20.1v60.7
		C287.4,282.4,280.9,288.9,272.9,288.9z"/>
	<path class="st1" d="M286.4,212.7h-15.9c-2.3,0-4.1-1.8-4.1-4.1l0-16"/>
</g>
<g>
	<path class="st15" d="M57.3,385.2H15.5c-8,0-14.5-6.5-14.5-14.5v-66.3c0-8,6.5-14.5,14.5-14.5h36.3l20,20.1v60.7
		C71.9,378.7,65.4,385.2,57.3,385.2z"/>
	<g>
		<path class="st2" d="M13.4,344h19.3v2H13.4V344z M13.3,349.4h19.3v2H13.3V349.4z M15.6,331.6l0.5-1.6h2.9l0.5,1.6h0.9h0.9
			l-2.7-7.7h-0.9h-0.9l-2.7,7.7h0.8H15.6z M17.6,325.6l1,3.1h-2L17.6,325.6z M32.6,325.8H22.5v-2h10.1V325.8z M32.6,330.8H22.5v-2
			h10.1V330.8z M32.6,335.8h-19v-2h19C32.6,333.9,32.6,335.8,32.6,335.8z M32.6,340.9h-19v-2h19C32.6,338.9,32.6,340.9,32.6,340.9z
			 M59.6,346H40.3v-2h19.3V346z M59.4,351.3H40.1v-2h19.3V351.3z M59.4,325.8H40.5v-2h18.9C59.4,323.8,59.4,325.8,59.4,325.8z
			 M59.4,330.8H40.5v-2h18.9C59.4,328.8,59.4,330.8,59.4,330.8z M59.4,335.8H40.5v-2h18.9C59.4,333.9,59.4,335.8,59.4,335.8z
			 M59.4,340.9H40.5v-2h18.9C59.4,338.9,59.4,340.9,59.4,340.9z"/>
	</g>
	<path class="st1" d="M71.9,310H56c-2.3,0-4.1-1.8-4.1-4.1l0-16"/>
</g>
</svg>
