<?xml version="1.0" standalone="no"?>
<!DOCTYPE svg PUBLIC "-//W3C//DTD SVG 20010904//EN"
 "http://www.w3.org/TR/2001/REC-SVG-20010904/DTD/svg10.dtd">
<svg version="1.0" xmlns="http://www.w3.org/2000/svg"
 width="1374.000000pt" height="1374.000000pt" viewBox="0 0 1374.000000 1374.000000"
 preserveAspectRatio="xMidYMid meet">
<metadata>
Created by potrace 1.14, written by Peter Selinger 2001-2017
</metadata>
<g transform="translate(0.000000,1374.000000) scale(0.100000,-0.100000)"
fill="#000000" stroke="none">
<path d="M6825 13723 c-16 -9 -77 -44 -135 -78 -58 -34 -125 -73 -150 -87 -25
-14 -247 -142 -495 -285 -247 -143 -538 -310 -645 -372 -199 -115 -298 -172
-685 -396 -121 -70 -236 -137 -255 -148 -72 -40 -773 -444 -975 -562 -115 -67
-349 -202 -520 -300 -170 -98 -404 -233 -520 -300 -115 -67 -230 -133 -255
-147 -25 -14 -142 -81 -260 -150 -118 -69 -235 -136 -260 -150 -25 -14 -107
-62 -184 -107 -76 -44 -140 -81 -141 -81 -2 0 -50 -28 -107 -62 -138 -82 -192
-113 -261 -148 l-57 -30 2 -3446 3 -3447 155 -90 c85 -49 173 -100 195 -112
70 -40 219 -127 250 -146 17 -10 36 -22 44 -25 14 -7 115 -65 268 -155 49 -28
104 -60 123 -71 107 -61 151 -86 309 -178 62 -36 132 -76 156 -90 24 -14 106
-61 182 -105 76 -44 147 -85 158 -91 11 -6 88 -51 170 -99 83 -48 168 -97 190
-110 67 -38 366 -211 650 -375 88 -51 180 -104 205 -118 25 -14 77 -44 115
-67 39 -22 77 -44 85 -48 8 -4 31 -17 50 -28 19 -12 118 -69 220 -128 413
-239 587 -340 620 -359 19 -10 91 -52 160 -92 69 -40 238 -137 375 -217 138
-79 257 -148 265 -153 42 -25 331 -191 370 -212 25 -14 86 -49 135 -78 50 -29
104 -60 120 -70 17 -9 106 -61 200 -115 l170 -98 55 29 c46 24 189 106 305
173 29 17 459 266 520 301 17 9 77 44 135 77 58 33 156 90 219 127 62 36 115
66 117 66 2 0 28 16 58 35 30 19 57 35 60 35 4 0 188 105 226 130 8 5 51 30
95 55 44 25 100 57 125 71 105 61 438 253 470 271 19 11 179 103 355 205 176
101 349 201 385 222 36 20 72 41 80 46 15 10 283 164 350 202 19 11 94 54 165
96 72 41 144 83 160 92 38 22 205 118 225 130 8 5 92 53 185 106 94 54 238
137 322 186 83 48 169 97 190 109 21 12 153 88 293 169 140 81 271 157 290
167 19 11 96 55 170 98 312 180 366 211 383 218 16 6 17 191 17 3457 l0 3450
-50 25 c-27 14 -87 47 -132 74 -46 27 -99 58 -118 69 -19 11 -217 125 -440
254 -223 129 -425 246 -450 260 -39 23 -301 174 -905 523 -93 54 -183 106
-200 115 -16 9 -88 51 -160 92 -71 42 -146 85 -165 96 -19 11 -150 86 -290
167 -246 143 -1945 1123 -2200 1270 -69 40 -276 159 -460 265 -184 106 -339
196 -344 201 -15 13 -47 10 -81 -8z m259 -3146 c105 -60 209 -120 231 -132 22
-13 135 -78 250 -145 116 -67 228 -132 250 -144 22 -13 137 -79 255 -148 118
-68 235 -136 260 -150 25 -14 70 -40 100 -58 53 -31 81 -48 153 -88 17 -11 77
-45 132 -77 94 -55 247 -143 325 -187 19 -11 145 -84 280 -162 135 -78 381
-221 547 -317 263 -151 304 -178 312 -204 15 -45 9 -3784 -5 -3809 -6 -10 -33
-31 -60 -46 -27 -15 -159 -91 -294 -170 -135 -78 -261 -151 -280 -161 -19 -11
-42 -24 -50 -29 -8 -5 -40 -24 -70 -41 -122 -70 -452 -261 -570 -329 -69 -40
-143 -83 -165 -95 -22 -13 -80 -46 -130 -75 -49 -29 -108 -63 -130 -75 -22
-13 -170 -98 -330 -190 -159 -93 -306 -177 -325 -188 -34 -19 -142 -82 -305
-177 -44 -26 -98 -57 -120 -69 -22 -12 -56 -31 -75 -42 -53 -32 -278 -162
-341 -197 l-56 -32 -114 66 c-63 36 -143 82 -178 101 -35 20 -109 62 -163 94
-55 33 -101 59 -103 59 -1 0 -54 30 -116 66 -63 37 -321 186 -574 332 -889
512 -1500 865 -1540 888 -376 214 -492 285 -511 312 l-21 30 0 1880 c-1 1785
0 1882 17 1910 12 20 76 62 206 137 104 60 313 180 464 268 151 88 293 170
315 182 32 18 944 545 1425 823 52 30 106 61 120 68 14 8 192 110 395 227 204
118 376 211 384 209 8 -3 100 -55 205 -115z"/>
<path d="M4642 8360 l-192 -190 2 -330 3 -331 193 192 192 192 0 328 c0 181
-1 329 -2 329 -2 0 -90 -86 -196 -190z"/>
<path d="M5457 7775 c-3 -9 -1 -2203 2 -2215 1 -3 379 -5 841 -5 l840 0 0 395
0 394 -46 -44 c-79 -78 -336 -337 -343 -347 -5 -7 -844 -11 -896 -4 -7 1 -10
249 -10 721 0 472 3 721 10 722 6 1 209 2 453 3 l442 1 0 -200 0 -200 153 151
c83 84 171 171 195 193 l42 42 0 201 0 202 -840 0 c-552 0 -841 -3 -843 -10z"/>
<path d="M7691 7780 c-4 -3 -7 -501 -7 -1108 1 -822 4 -1105 13 -1110 6 -4
323 -7 705 -6 l693 0 192 192 c106 105 189 193 185 195 -4 2 -321 3 -704 3
l-698 -1 0 346 0 346 83 17 c45 10 89 19 97 21 8 2 114 24 235 49 121 26 252
53 290 62 39 8 79 16 90 19 11 2 54 11 95 20 41 9 84 18 95 21 42 8 171 34
191 38 12 3 38 9 57 14 20 6 38 7 41 4 3 -3 6 1 7 9 1 19 1 818 0 849 l-1 25
-826 0 c-454 0 -829 -2 -833 -5z m1264 -389 c10 -1 14 -155 4 -165 -2 -3 -50
-14 -104 -26 -55 -11 -118 -25 -140 -30 -56 -13 -373 -78 -415 -85 -19 -3 -60
-12 -90 -20 -30 -7 -74 -16 -97 -20 l-43 -7 0 179 0 178 438 -1 c240 -1 442
-2 447 -3z"/>
<path d="M4622 7080 l-193 -195 2 -662 c1 -365 5 -663 8 -664 52 -7 374 -2
377 6 2 5 3 393 2 860 l-3 850 -193 -195z"/>
</g>
</svg>
